<?xml version="1.0" standalone="no"?>
<!DOCTYPE svg PUBLIC "-//W3C//DTD SVG 20010904//EN"
 "http://www.w3.org/TR/2001/REC-SVG-20010904/DTD/svg10.dtd">
<svg version="1.0" xmlns="http://www.w3.org/2000/svg"
 width="475.000000pt" height="475.000000pt" viewBox="0 0 475.000000 475.000000"
 preserveAspectRatio="xMidYMid meet">

<g transform="translate(0.000000,475.000000) scale(0.100000,-0.100000)"
fill="#000000" stroke="none">
<path d="M2160 4740 c-304 -32 -557 -104 -825 -234 -481 -235 -855 -609 -1091
-1091 -167 -343 -238 -653 -238 -1040 0 -227 13 -348 61 -550 202 -860 883
-1544 1747 -1756 200 -48 328 -63 561 -63 387 0 697 71 1040 238 482 236 855
609 1091 1091 167 343 238 653 238 1040 0 387 -71 697 -238 1040 -236 483
-608 854 -1091 1091 -230 112 -451 181 -705 219 -126 19 -432 27 -550 15z
m119 -574 c-10 -9 -101 -17 -95 -8 3 5 26 10 52 11 26 0 46 0 43 -3z m182 -10
c4 -4 61 -9 127 -10 95 -1 118 -4 110 -13 -8 -10 -5 -13 11 -13 12 0 20 4 17
9 -5 8 18 6 72 -5 14 -3 20 -9 16 -16 -5 -7 1 -9 17 -5 13 3 31 1 39 -4 12 -9
11 -10 -5 -4 -15 5 -17 3 -8 -5 7 -8 17 -9 29 -2 10 6 29 6 47 1 36 -10 52
-24 17 -15 -23 6 -23 6 3 -9 16 -9 35 -14 43 -11 10 4 12 2 8 -6 -5 -8 2 -9
22 -4 17 4 24 3 16 -2 -19 -13 34 -38 86 -41 7 -1 11 -5 8 -10 -4 -5 3 -7 15
-4 13 4 25 -1 34 -14 19 -28 79 -55 102 -46 16 6 16 5 4 -10 -12 -15 -12 -17
2 -11 19 7 60 -14 52 -27 -4 -5 -1 -8 6 -7 7 2 14 -3 15 -9 1 -7 2 -15 3 -18
0 -3 9 -1 20 4 14 8 22 6 35 -8 9 -10 14 -20 11 -23 -6 -6 117 -108 130 -108
4 0 -3 9 -16 21 -19 16 -20 18 -4 10 11 -6 34 -23 50 -37 17 -14 25 -23 18
-20 -24 13 -18 -10 9 -36 31 -30 38 -26 11 6 -10 12 -3 8 15 -9 18 -16 31 -34
28 -41 -5 -13 12 -34 28 -34 5 0 1 7 -10 16 -18 14 -18 15 4 4 13 -7 21 -17
18 -25 -2 -7 5 -21 17 -32 19 -16 20 -16 8 0 -8 9 -11 20 -8 23 6 7 28 -32 25
-43 -2 -4 14 -30 35 -57 20 -27 37 -46 37 -41 0 4 -14 25 -31 46 -17 21 -27
39 -22 39 15 0 70 -84 68 -102 -2 -10 2 -15 10 -12 7 3 16 0 21 -7 4 -8 3 -10
-4 -5 -7 4 -12 5 -12 3 0 -12 44 -86 48 -82 3 2 0 10 -5 17 -12 16 -24 48 -18
48 11 0 36 -63 30 -77 -4 -13 -3 -13 9 -4 11 9 15 8 20 -4 4 -11 2 -14 -7 -9
-6 4 -1 -5 12 -19 14 -15 19 -27 13 -27 -7 0 -12 5 -12 12 0 6 -2 9 -5 6 -8
-8 36 -79 45 -73 7 4 16 -27 22 -72 1 -6 7 -9 15 -6 7 3 13 0 13 -6 0 -6 -4
-11 -10 -11 -5 0 -10 -5 -10 -11 0 -5 4 -8 9 -5 5 3 12 -11 16 -31 8 -42 32
-94 49 -105 8 -6 7 -10 -2 -16 -10 -7 -10 -11 3 -22 8 -7 15 -18 15 -24 0 -6
-5 -4 -10 4 -5 8 -10 10 -10 4 0 -5 11 -25 25 -44 27 -37 30 -45 15 -35 -14 9
-2 -43 16 -69 7 -10 11 -23 9 -30 -13 -43 -13 -77 0 -89 8 -8 17 -28 20 -43 3
-16 2 -23 -1 -16 -13 28 -19 -1 -15 -85 3 -66 6 -81 12 -58 5 21 6 13 3 -25
-6 -74 -5 -139 2 -174 4 -17 2 -26 -4 -22 -12 7 -23 -72 -15 -104 5 -19 3 -22
-10 -17 -19 7 -23 -8 -7 -18 8 -5 7 -11 -1 -21 -6 -8 -8 -26 -5 -41 5 -21 4
-24 -4 -13 -9 13 -10 13 -11 0 -1 -8 -1 -26 0 -40 2 -20 0 -22 -8 -10 -6 8
-11 10 -11 4 0 -6 -2 -27 -5 -45 -4 -30 -4 -31 5 -9 8 20 9 18 4 -15 -5 -37
-42 -121 -44 -100 -1 12 -39 -55 -40 -70 0 -5 9 4 20 20 22 33 26 29 8 -10 -6
-14 -18 -25 -27 -26 -10 0 -12 -2 -3 -6 6 -2 12 -9 12 -14 0 -6 -4 -8 -9 -4
-13 7 -34 -33 -27 -51 8 -20 -26 -75 -43 -69 -11 4 -11 2 -3 -8 9 -11 6 -17
-13 -27 -19 -10 -22 -16 -14 -27 8 -9 8 -13 0 -13 -6 0 -11 -6 -11 -14 0 -8
-5 -18 -12 -22 -8 -5 -9 -2 -5 10 4 10 3 15 -3 11 -6 -3 -10 -15 -10 -26 0
-11 -5 -17 -10 -14 -6 4 -10 3 -9 -2 4 -22 -2 -34 -13 -27 -8 5 -7 0 2 -11 9
-11 10 -16 3 -11 -8 4 -13 2 -13 -4 0 -6 -4 -8 -10 -5 -6 3 -7 -1 -4 -9 4 -9
-5 -29 -20 -47 -31 -36 -35 -24 -5 17 15 21 12 20 -10 -5 -21 -24 -27 -38 -21
-46 7 -9 5 -17 -7 -26 -16 -13 -17 -12 -4 3 7 10 9 18 4 18 -16 0 -32 -22 -26
-38 4 -10 2 -13 -5 -8 -7 4 -12 1 -12 -6 0 -8 -17 -30 -37 -49 -34 -31 -35
-31 -13 -4 l25 30 -31 -28 c-17 -16 -31 -35 -30 -44 0 -9 -5 -18 -13 -21 -9
-3 -11 0 -6 8 5 8 4 11 -3 6 -6 -4 -8 -14 -5 -22 5 -13 1 -15 -18 -9 -15 4
-19 3 -12 -2 10 -7 4 -18 -21 -42 -24 -24 -36 -29 -41 -20 -6 8 -4 10 5 4 9
-6 11 -4 6 4 -6 9 -13 8 -27 -5 -10 -9 -16 -20 -14 -24 3 -5 -12 -22 -33 -39
-31 -24 -42 -28 -52 -18 -10 9 -11 9 -6 0 7 -12 -5 -18 -27 -14 -5 1 -6 -3 -3
-8 4 -5 -4 -11 -16 -13 -12 -2 -28 -14 -35 -27 -6 -13 -19 -29 -29 -34 -13 -7
-15 -6 -10 4 4 8 2 7 -6 -2 -7 -9 -29 -24 -48 -33 l-35 -17 25 20 c14 11 29
21 34 21 5 0 7 2 4 5 -10 10 -78 -30 -73 -42 2 -8 -2 -10 -12 -6 -11 4 -14 2
-9 -5 5 -8 1 -10 -10 -5 -12 4 -15 3 -10 -5 5 -8 1 -10 -10 -5 -13 5 -15 3 -9
-8 7 -11 6 -12 -6 -2 -11 9 -25 6 -67 -14 -28 -13 -52 -30 -52 -36 0 -7 -4 -6
-10 3 -8 13 -12 13 -27 -3 -17 -17 -17 -18 2 -12 15 5 17 5 6 -3 -8 -6 -34 -9
-57 -8 -24 1 -49 -2 -56 -6 -8 -6 -4 -7 12 -3 19 5 22 4 10 -4 -8 -6 -26 -9
-40 -6 -14 3 -32 0 -40 -6 -12 -8 -9 -9 10 -4 17 4 20 3 10 -3 -24 -15 -79
-22 -85 -12 -3 6 -13 10 -22 10 -11 0 -13 -3 -5 -12 8 -10 -4 -12 -56 -10 -42
2 -62 -1 -54 -6 18 -12 -18 -22 -73 -20 l-40 1 45 7 c40 6 -177 14 -402 15
-52 0 -64 3 -56 12 8 10 3 13 -18 15 -16 1 -47 3 -69 4 -22 1 -46 3 -53 3 -7
1 -11 5 -8 10 9 13 -14 19 -51 13 -19 -2 -33 0 -33 5 0 10 -29 24 -79 38 -16
5 -21 4 -17 -4 4 -6 -9 -4 -29 6 -20 10 -32 19 -25 21 6 2 17 -2 26 -8 8 -7
17 -10 21 -7 3 4 -9 13 -28 21 -26 11 -37 12 -48 3 -12 -10 -13 -9 -6 2 6 11
4 13 -9 8 -10 -4 -15 -3 -11 3 4 6 -5 10 -20 10 -17 0 -24 4 -19 12 5 8 2 9
-10 5 -10 -4 -15 -3 -11 3 7 11 -54 52 -66 44 -4 -2 -10 0 -14 6 -3 5 -11 10
-18 10 -6 0 -2 -7 9 -16 18 -14 18 -15 -3 -4 -13 6 -23 15 -23 19 0 5 -9 11
-21 14 -12 3 -18 10 -14 16 3 6 -1 11 -10 11 -9 0 -14 4 -11 9 4 5 -4 7 -16 3
-16 -4 -20 -2 -16 10 4 8 0 15 -8 15 -7 0 -10 -5 -7 -11 4 -6 -1 -5 -10 3 -9
7 -15 17 -12 21 3 4 -3 14 -13 21 -15 13 -16 12 -3 -3 19 -25 -2 -23 -24 2
-10 11 -14 20 -10 20 4 0 0 9 -10 20 -10 11 -20 18 -23 15 -3 -3 -11 4 -19 15
-8 11 -19 20 -25 20 -7 0 -3 -7 8 -15 10 -8 14 -15 8 -15 -16 0 -45 35 -37 44
4 4 -1 4 -12 0 -14 -6 -17 -4 -12 9 3 9 1 19 -5 23 -7 4 -8 3 -4 -4 4 -7 2
-12 -3 -12 -6 0 -12 5 -12 10 -1 6 -2 15 -3 20 0 6 -4 9 -8 8 -11 -4 -78 64
-78 79 0 7 -5 13 -12 13 -6 0 -8 3 -5 6 7 7 -47 87 -72 107 -9 7 -5 -1 7 -17
30 -39 28 -58 -3 -21 -14 17 -23 38 -21 48 2 9 0 15 -5 11 -5 -3 -9 0 -9 5 0
6 -5 10 -11 9 -6 -2 -13 7 -15 20 -3 16 0 21 8 16 7 -4 8 -3 4 5 -4 6 -12 9
-17 6 -5 -4 -9 3 -9 14 0 11 -4 22 -9 25 -5 4 -7 -4 -4 -16 4 -21 3 -21 -7 -5
-6 10 -9 24 -6 32 3 10 0 12 -12 8 -14 -6 -15 -4 -4 9 10 13 10 17 -3 22 -11
4 -14 2 -9 -6 5 -7 3 -8 -5 -3 -9 5 -10 10 -2 18 11 11 -9 60 -31 73 -6 4 -2
-9 11 -29 12 -20 19 -37 14 -37 -13 0 -52 80 -47 95 7 18 -14 57 -27 50 -5 -4
-9 -2 -9 4 0 5 6 12 13 14 8 4 6 6 -4 6 -9 1 -21 12 -27 26 -18 39 -14 43 8
10 11 -16 20 -26 20 -22 0 14 -22 51 -39 65 -9 8 -10 11 -3 7 16 -8 15 4 -4
35 l-15 25 6 -25 c5 -21 4 -22 -5 -7 -6 9 -13 26 -15 37 -2 11 -7 24 -10 30
-3 5 -1 19 5 30 8 15 8 18 -3 14 -14 -5 -16 3 -18 61 0 22 -3 26 -10 15 -7
-11 -8 -7 -3 13 3 15 1 33 -5 41 -8 10 -9 16 -1 21 15 9 12 25 -4 19 -10 -4
-12 2 -9 20 7 35 -7 123 -16 107 -5 -7 -6 12 -4 41 5 58 5 68 -1 148 -3 38 -2
46 3 25 6 -23 9 -8 12 60 4 98 3 107 -12 85 -8 -11 -9 -8 -4 14 3 15 13 35 20
43 17 17 17 16 6 66 -6 27 -5 41 3 50 18 18 29 80 13 72 -6 -4 -5 -1 3 7 15
12 40 61 40 76 0 4 -5 0 -10 -8 -7 -11 -8 -5 -3 20 3 19 12 41 20 48 7 7 13
18 13 25 0 6 -7 2 -15 -9 -14 -17 -14 -17 -3 11 6 17 20 39 30 51 10 11 18 25
18 31 0 6 6 14 13 16 9 4 9 7 -1 15 -7 5 -10 16 -6 26 4 12 10 14 19 6 9 -7
11 -2 10 20 -1 16 2 27 7 24 4 -3 8 0 8 6 0 7 11 25 25 42 14 16 25 35 25 41
0 7 -9 -1 -20 -18 -11 -16 -20 -26 -20 -22 0 14 22 51 39 65 9 8 10 11 4 7 -9
-4 -11 -1 -7 10 5 12 9 13 20 4 12 -9 13 -9 9 4 -6 14 19 77 30 77 6 0 -6 -32
-18 -48 -5 -7 -8 -15 -5 -17 4 -4 48 70 48 82 0 2 -5 1 -12 -3 -7 -5 -8 -3 -4
5 5 7 14 10 20 8 7 -3 13 1 13 9 0 7 -5 10 -11 7 -6 -4 -5 1 3 10 7 9 17 15
21 12 9 -6 82 80 74 88 -12 12 16 46 33 40 11 -4 14 -3 9 6 -4 6 3 24 18 41
16 19 26 25 29 17 3 -7 6 -5 6 5 1 9 5 20 11 23 6 4 7 -1 4 -12 -5 -13 -2 -13
10 4 9 12 28 31 42 42 15 12 22 21 16 21 -6 0 -20 -10 -32 -22 -11 -12 -22
-19 -25 -16 -4 3 13 21 37 40 48 39 86 61 49 29 -13 -12 -20 -21 -16 -21 10 0
118 85 140 111 l20 24 -20 -15 c-19 -14 -19 -14 -6 3 11 13 17 15 28 6 11 -9
12 -9 8 4 -4 8 -1 18 6 23 8 4 10 3 5 -4 -10 -17 6 -14 29 5 16 13 17 15 3 10
-29 -10 -21 1 13 18 17 9 38 14 46 10 13 -4 14 -3 3 10 -15 18 1 20 19 3 10
-11 11 -9 5 6 -6 16 -4 17 17 11 18 -5 21 -4 9 4 -14 10 -7 16 14 12 19 -4 46
11 46 26 0 11 7 14 25 11 13 -3 22 -1 19 3 -3 5 1 9 8 10 49 3 125 39 111 53
-4 4 0 4 8 1 9 -3 32 1 50 9 24 11 27 14 9 10 -19 -4 -22 -3 -10 5 8 6 33 9
56 6 22 -2 47 1 55 6 10 8 8 9 -8 4 -13 -4 -23 -2 -23 4 0 5 15 8 33 5 44 -5
75 5 56 18 -10 7 -9 8 6 3 24 -8 22 -8 63 -6 18 0 31 5 27 11 -3 5 -13 6 -23
3 -9 -3 -14 -3 -10 2 4 4 65 9 135 10 70 2 129 7 130 12 4 12 156 11 164 -1z
m115 2 c4 -6 -14 -7 -42 -2 -65 9 -69 15 -10 13 26 -1 49 -6 52 -11z m-449 -4
c-3 -3 -12 -4 -19 -1 -8 3 -5 6 6 6 11 1 17 -2 13 -5z m530 0 c-3 -3 -12 -4
-19 -1 -8 3 -5 6 6 6 11 1 17 -2 13 -5z m-957 -119 c0 -2 -9 -9 -20 -15 -12
-6 -20 -7 -20 -1 0 5 8 12 18 14 9 3 18 5 20 6 1 0 2 -1 2 -4z m1400 -15 c0
-5 -9 -6 -20 -3 -11 3 -20 9 -20 13 0 5 9 6 20 3 11 -3 20 -9 20 -13z m145
-70 c3 -5 1 -10 -4 -10 -6 0 -11 5 -11 10 0 6 2 10 4 10 3 0 8 -4 11 -10z
m-1941 -142 c-3 -7 -18 -23 -34 -36 -22 -17 -30 -19 -36 -10 -4 7 -4 10 0 7 4
-4 21 6 39 22 35 33 39 34 31 17z m2206 -40 c0 -5 5 -6 12 -2 7 4 8 3 4 -5 -5
-8 -18 -1 -42 21 -42 40 -43 46 -4 16 17 -12 30 -26 30 -30z m-2536 -290 c-16
-18 -32 -37 -36 -42 -5 -6 -8 -6 -8 0 0 12 56 74 66 74 4 0 -5 -15 -22 -32z
m3114 -521 c7 -16 8 -26 3 -23 -5 3 -14 20 -20 38 -13 38 0 26 17 -15z m-3478
-342 c0 -5 -5 -3 -10 5 -5 8 -10 20 -10 25 0 6 5 3 10 -5 5 -8 10 -19 10 -25z
m3551 8 c-12 -20 -14 -14 -5 12 4 9 9 14 11 11 3 -2 0 -13 -6 -23z m-3574
-155 c-2 -13 -4 -5 -4 17 -1 22 1 32 4 23 2 -10 2 -28 0 -40z m3590 5 c-3 -10
-5 -4 -5 12 0 17 2 24 5 18 2 -7 2 -21 0 -30z m-3419 -878 c-3 -3 -9 2 -12 12
-6 14 -5 15 5 6 7 -7 10 -15 7 -18z m239 -362 c-4 -3 -1 -13 6 -22 11 -14 10
-14 -5 -2 -16 12 -16 31 -1 31 4 0 3 -3 0 -7z m267 -272 c-4 -3 -9 0 -11 7 -3
6 -10 9 -15 6 -7 -4 -8 -2 -4 5 6 9 11 9 22 0 8 -6 12 -15 8 -18z m2246 9 c0
-5 -5 -10 -11 -10 -5 0 -7 5 -4 10 3 6 8 10 11 10 2 0 4 -4 4 -10z m-165 -120
c-3 -5 -11 -10 -16 -10 -6 0 -7 5 -4 10 3 6 11 10 16 10 6 0 7 -4 4 -10z
m-1795 -71 c0 -5 -11 -3 -25 3 -14 6 -25 15 -25 19 0 5 11 3 25 -3 14 -6 25
-15 25 -19z m1540 -66 c-8 -3 -27 -12 -42 -20 -16 -7 -28 -11 -28 -9 0 9 54
35 70 35 13 -1 13 -1 0 -6z m-1275 -53 c3 -6 -1 -7 -9 -4 -18 7 -21 14 -7 14
6 0 13 -4 16 -10z m464 -86 c9 -8 -85 -2 -104 6 -12 5 4 6 40 3 33 -3 62 -7
64 -9z m144 -1 c-24 -2 -62 -2 -85 0 -24 2 -5 4 42 4 47 0 66 -2 43 -4z"/>
<path d="M2284 4091 c7 -11 -18 -21 -47 -20 -21 0 -21 1 -2 10 21 10 14 9 -62
-11 -18 -4 -33 -4 -33 0 0 5 10 11 23 13 12 2 2 2 -23 0 -53 -6 -67 -12 -49
-24 19 -12 -3 -12 -35 1 -21 8 -29 6 -45 -11 -14 -16 -27 -19 -48 -15 -15 3
-41 2 -58 -3 -27 -8 -28 -9 -6 -10 32 -1 25 -7 -19 -15 -25 -4 -31 -3 -20 4
13 9 13 10 0 10 -18 -1 -52 -25 -45 -32 3 -3 -7 -6 -22 -6 -48 -1 -62 -5 -57
-14 3 -4 -4 -8 -16 -8 -26 0 -82 -28 -93 -46 -4 -8 -17 -19 -29 -25 -15 -8
-19 -8 -14 0 11 18 -7 12 -34 -10 -14 -11 -19 -18 -12 -14 6 3 12 4 12 1 0 -3
-10 -10 -21 -17 -17 -9 -20 -8 -13 3 6 10 5 11 -8 1 -8 -7 -18 -11 -21 -8 -4
3 -5 2 -2 -2 3 -4 -9 -12 -27 -17 -18 -6 -33 -15 -33 -21 0 -22 -17 -36 -37
-29 -17 5 -20 3 -15 -10 4 -10 3 -15 -3 -11 -6 4 -25 -8 -42 -27 -17 -18 -35
-32 -41 -30 -13 4 -47 -28 -47 -43 0 -7 -10 -19 -22 -28 -13 -8 -39 -30 -58
-48 -19 -19 -38 -33 -42 -32 -4 2 -5 -3 -2 -11 3 -8 0 -17 -7 -22 -8 -5 -10
-3 -4 6 6 9 4 11 -4 6 -7 -5 -10 -14 -7 -22 3 -8 0 -11 -8 -8 -14 5 -38 -18
-34 -34 3 -10 -59 -102 -69 -102 -3 0 1 8 8 18 13 15 12 16 -3 4 -9 -8 -15
-19 -12 -27 5 -13 -12 -30 -31 -30 -5 0 -17 -21 -25 -47 -14 -44 -37 -84 -25
-43 3 11 -2 4 -12 -15 -10 -19 -21 -36 -25 -38 -5 -2 -8 -8 -8 -13 0 -6 4 -7
10 -4 5 3 7 0 4 -9 -3 -9 -12 -12 -21 -9 -13 5 -15 2 -11 -15 4 -12 2 -20 -2
-17 -12 7 -23 -32 -14 -47 5 -7 2 -9 -8 -5 -11 4 -18 -2 -23 -20 -3 -14 -4
-28 -1 -30 3 -3 -1 -12 -9 -20 -8 -8 -15 -23 -15 -33 0 -10 -10 -36 -22 -56
-12 -21 -16 -34 -9 -30 9 6 12 3 9 -10 -2 -11 -9 -18 -14 -17 -5 1 -10 -7 -10
-18 0 -10 4 -19 8 -19 5 0 0 -12 -9 -27 -10 -15 -13 -24 -6 -20 7 5 9 0 6 -13
-3 -11 -8 -20 -12 -20 -14 0 -34 -100 -23 -113 6 -6 8 -25 5 -42 -6 -26 -7
-27 -15 -10 -9 21 -10 25 7 -47 5 -22 5 -22 -5 -3 -8 15 -9 8 -6 -33 2 -32 0
-48 -5 -40 -7 10 -9 9 -9 -4 0 -10 7 -18 15 -18 8 0 14 -5 13 -11 -2 -6 3 -14
11 -17 8 -3 11 0 7 7 -5 8 0 9 16 3 13 -4 233 -5 490 -2 256 3 464 2 461 -2
-7 -13 12 -9 25 4 10 9 16 8 30 -6 12 -13 13 -20 5 -23 -7 -2 -10 -10 -7 -18
3 -7 0 -16 -7 -21 -8 -5 -10 -3 -4 6 6 10 4 12 -11 6 -16 -7 -70 -10 -109 -7
-59 5 -877 1 -884 -4 -6 -3 -11 -1 -11 5 0 6 -5 8 -10 5 -6 -4 -7 -11 -4 -17
5 -7 1 -9 -9 -5 -13 5 -17 1 -17 -18 0 -13 5 -27 10 -30 6 -4 7 -11 4 -17 -4
-6 0 -14 7 -19 11 -7 11 -11 2 -17 -8 -5 -9 -13 -3 -22 13 -20 13 -43 0 -35
-11 7 -11 -16 0 -60 7 -28 8 -29 10 -5 1 23 2 23 9 5 5 -11 6 -34 4 -51 -3
-19 1 -41 10 -55 9 -14 14 -41 12 -67 -2 -32 1 -42 11 -38 9 4 13 -4 13 -27 0
-18 2 -39 4 -47 18 -59 20 -62 29 -48 7 9 8 8 4 -6 -9 -27 14 -95 30 -89 9 3
11 -2 7 -19 -4 -18 -3 -20 6 -8 9 13 11 12 12 -5 1 -11 2 -29 1 -40 0 -11 2
-14 5 -7 4 10 8 9 18 -5 10 -13 10 -20 2 -25 -9 -6 -9 -8 1 -8 6 0 12 -9 12
-21 0 -15 5 -19 16 -15 12 4 14 1 9 -13 -3 -11 0 -23 7 -28 7 -4 18 -21 24
-38 6 -16 15 -29 21 -28 6 1 10 -5 9 -15 0 -9 6 -17 14 -17 9 0 14 -8 12 -18
-2 -9 3 -17 11 -17 8 0 21 -8 28 -17 13 -17 13 -17 -5 -3 -19 15 -19 14 -2
-12 10 -16 25 -28 33 -28 8 0 11 -5 8 -10 -9 -15 15 -42 32 -36 8 3 11 1 8 -5
-4 -5 9 -24 28 -42 19 -18 40 -42 46 -54 6 -13 16 -23 21 -23 5 0 26 -17 46
-37 20 -21 33 -32 29 -26 -4 9 -1 11 9 7 9 -3 14 -10 11 -14 -7 -11 32 -43 43
-36 5 3 16 -2 23 -12 13 -16 12 -16 -6 -3 -11 7 -5 0 13 -18 18 -17 40 -31 50
-31 9 -1 28 -7 42 -15 29 -17 19 -20 -13 -4 -21 10 -21 10 -3 -5 11 -9 27 -16
37 -16 9 0 19 -7 23 -15 3 -8 11 -15 18 -15 9 0 8 3 -2 10 -11 7 -12 10 -2 10
8 0 16 -9 19 -20 5 -18 10 -22 29 -19 4 0 10 -4 13 -9 9 -14 85 -50 97 -45 6
2 26 -3 45 -12 l34 -16 -35 6 c-21 3 -7 -5 35 -20 38 -13 71 -22 74 -20 2 3
-2 5 -9 5 -7 0 -11 2 -8 5 2 3 28 -4 58 -14 40 -14 48 -20 34 -25 -11 -3 -7
-4 9 -2 15 2 27 -1 27 -6 0 -5 16 -8 36 -6 19 1 38 -3 42 -8 9 -15 70 -26 74
-14 2 5 14 6 28 3 l25 -7 -25 -8 c-16 -5 -4 -6 32 -3 35 3 58 1 60 -6 5 -15
326 -15 341 0 6 6 22 11 36 10 l26 -1 -25 -8 c-16 -6 -5 -7 30 -3 30 3 65 10
78 14 13 5 35 9 48 9 14 0 22 4 19 10 -3 6 -3 10 2 10 57 3 116 10 121 15 3 3
-3 5 -14 5 -10 1 4 9 33 20 29 10 61 16 72 13 11 -3 27 3 38 14 18 18 87 53
101 53 4 -1 -13 -12 -38 -25 -25 -13 -40 -24 -35 -24 18 0 100 47 97 55 -2 5
2 10 9 13 7 2 9 -1 5 -8 -4 -6 -2 -11 3 -11 6 0 11 7 11 15 0 9 6 12 17 8 11
-4 14 -3 9 5 -4 7 -2 10 6 7 8 -3 22 1 33 10 20 15 20 15 0 8 -25 -8 -18 0 14
17 19 10 22 10 16 -2 -3 -7 0 -5 8 5 8 9 21 17 29 17 8 0 23 7 34 16 18 14 18
15 -4 4 -13 -7 -26 -10 -28 -7 -3 2 10 10 28 17 56 21 78 33 73 40 -3 4 5 16
18 26 21 19 21 19 7 0 -14 -18 -14 -18 7 -6 12 8 19 18 17 22 -3 4 1 8 9 8 8
0 22 10 31 23 9 12 14 15 10 7 -5 -10 -1 -9 14 4 12 10 19 22 17 27 -3 4 0 11
6 15 8 4 9 3 5 -4 -5 -8 -2 -10 8 -6 9 3 14 9 13 13 -1 4 24 33 56 64 32 31
56 61 52 66 -3 6 0 8 8 5 18 -6 41 21 31 37 -4 7 -3 9 3 6 13 -8 35 16 31 34
-2 7 6 17 18 23 11 6 19 16 17 23 -2 6 1 15 8 19 8 5 10 3 4 -7 -8 -12 -6 -12
9 0 9 8 15 19 13 26 -3 6 1 22 9 36 16 28 19 17 3 -14 -10 -21 -10 -21 5 -3 9
11 16 27 16 37 0 9 7 20 16 23 10 4 13 13 9 25 -3 11 0 23 6 27 8 4 9 3 5 -4
-4 -7 -2 -12 3 -12 12 0 15 12 11 44 -1 10 3 15 9 12 5 -4 11 6 13 21 2 16 8
27 15 26 13 -3 56 84 48 97 -3 5 -1 11 4 14 12 8 44 103 45 136 1 14 6 24 12
23 6 -1 9 15 8 40 -1 23 3 51 11 63 16 24 22 55 14 69 -3 6 -3 21 2 35 l7 25
2 -25 c2 -21 3 -20 10 10 9 38 4 53 -10 30 -6 -10 -7 -1 -3 25 3 22 10 43 16
46 5 4 3 9 -4 12 -12 5 -12 7 0 15 7 5 11 14 7 20 -3 6 -2 13 4 17 5 3 10 17
10 30 0 19 -4 23 -17 18 -10 -4 -14 -2 -9 5 3 6 2 13 -4 17 -5 3 -10 1 -10 -5
0 -6 -5 -8 -11 -5 -7 5 -825 9 -884 4 -39 -3 -93 0 -109 7 -15 6 -17 4 -11 -6
6 -9 4 -11 -4 -6 -7 5 -10 14 -7 21 3 8 0 16 -7 18 -8 3 -7 10 5 23 14 14 20
15 30 6 13 -13 32 -17 25 -4 -3 4 205 5 461 2 257 -3 477 -2 489 2 13 4 24 2
27 -5 2 -7 5 -4 5 6 1 9 8 17 16 17 8 0 15 7 15 16 0 8 -3 13 -8 10 -4 -2 -6
13 -4 35 2 22 0 45 -6 52 -6 6 -13 35 -16 62 -4 37 -3 42 3 20 l9 -30 1 37 c1
37 -13 59 -22 36 -3 -7 -2 6 0 30 4 30 2 42 -7 42 -7 0 -10 8 -8 18 3 10 -1
27 -8 37 -9 12 -10 23 -4 36 11 20 -3 69 -19 69 -6 0 -8 6 -5 14 3 8 1 17 -5
21 -6 3 -11 17 -11 31 0 13 -9 32 -20 41 -25 21 -27 41 -2 22 14 -11 15 -11 5
1 -7 8 -13 22 -13 32 0 11 -5 15 -15 12 -11 -5 -13 -2 -9 9 5 14 -29 91 -47
107 -3 3 -11 20 -18 38 -8 18 -19 36 -25 40 -6 4 -16 21 -22 37 -6 17 -16 29
-22 28 -7 -2 -11 0 -9 5 1 4 -2 8 -6 9 -15 3 -95 117 -90 128 5 15 -23 39 -36
30 -6 -3 -8 0 -5 8 3 8 0 18 -7 23 -8 5 -10 3 -4 -7 4 -8 -3 -3 -17 11 -13 14
-23 28 -22 31 2 3 -8 13 -21 23 -14 10 -22 23 -19 28 3 4 0 7 -8 6 -7 -2 -12
2 -11 9 2 7 -4 10 -12 7 -10 -4 -18 3 -25 21 -6 15 -16 25 -23 22 -7 -2 -30
11 -52 31 -37 32 -28 29 20 -8 24 -17 -19 23 -60 58 -30 25 -40 28 -29 10 5
-8 -2 -6 -16 3 -14 9 -25 23 -25 30 0 7 -13 18 -30 24 -16 5 -33 14 -36 19 -4
5 -11 6 -16 3 -6 -4 -19 1 -29 9 -10 9 -13 12 -5 8 9 -5 12 -3 7 4 -4 7 -14
12 -22 12 -8 0 -14 5 -14 10 0 6 -5 10 -11 10 -5 0 -7 -4 -4 -10 3 -6 -1 -7
-9 -4 -9 3 -14 11 -13 17 1 7 -6 11 -15 11 -10 -1 -16 2 -13 6 6 9 -25 23 -33
15 -3 -3 1 -5 8 -5 7 0 11 -2 8 -5 -8 -8 -79 26 -101 48 -13 13 -26 17 -44 12
-21 -5 -24 -3 -19 10 3 9 2 13 -3 10 -5 -3 -12 -1 -16 5 -3 5 -14 10 -23 10
-15 0 -15 -2 -2 -10 11 -8 7 -9 -15 -4 -56 11 -95 26 -95 35 0 5 -5 9 -11 9
-5 0 -7 -4 -4 -10 10 -16 -11 -11 -26 6 -10 12 -23 14 -54 10 -25 -4 -35 -3
-26 3 18 12 5 18 -49 24 -25 2 -35 2 -22 0 12 -2 22 -8 22 -13 0 -4 -15 -4
-32 0 -77 20 -84 21 -63 11 19 -9 19 -10 -2 -10 -29 -1 -54 9 -47 20 3 5 0 9
-5 9 -6 0 -11 -3 -11 -7 0 -5 -36 -8 -80 -8 -44 0 -80 3 -80 8 0 4 -5 7 -11 7
-5 0 -8 -4 -5 -9z m-594 -156 c-14 -8 -29 -14 -35 -14 -5 0 1 6 15 14 14 8 30
14 35 14 6 0 -1 -6 -15 -14z m-230 -125 c-8 -5 -19 -10 -25 -10 -5 0 -3 5 5
10 8 5 20 10 25 10 6 0 3 -5 -5 -10z m1860 0 c8 -5 11 -10 5 -10 -5 0 -17 5
-25 10 -8 5 -10 10 -5 10 6 0 17 -5 25 -10z m-1546 -91 c20 -9 32 -35 68 -143
l44 -131 143 -5 c135 -5 144 -6 162 -29 41 -50 25 -74 -116 -176 -44 -32 -84
-61 -89 -66 -4 -4 8 -58 27 -121 54 -170 53 -163 22 -194 -35 -35 -68 -28
-143 29 -31 23 -68 50 -82 60 -14 9 -35 24 -47 33 -21 15 -26 13 -135 -66 -97
-70 -117 -81 -142 -76 -68 14 -71 49 -21 197 19 57 35 111 35 121 0 17 -70 74
-167 136 -50 32 -68 67 -54 105 16 41 40 47 179 47 92 0 132 4 139 13 6 6 27
65 47 129 44 142 67 165 130 137z m1283 -4 c16 -11 34 -51 59 -133 20 -64 41
-123 47 -129 7 -9 48 -13 141 -13 100 0 137 -4 153 -15 24 -17 35 -62 22 -86
-5 -10 -56 -51 -114 -94 -67 -49 -105 -83 -105 -95 0 -10 16 -63 35 -119 51
-146 47 -183 -22 -197 -26 -5 -44 5 -141 76 -72 53 -116 79 -124 74 -7 -4 -55
-39 -106 -76 -111 -82 -140 -91 -177 -54 -31 31 -32 24 21 194 32 100 34 115
21 125 -9 7 -36 28 -62 47 -163 122 -177 141 -136 191 18 23 26 24 162 29
l143 5 44 131 c33 99 49 134 65 142 31 15 49 14 74 -3z m-2114 -420 c-3 -9 -8
-14 -10 -11 -3 3 -2 9 2 15 9 16 15 13 8 -4z m2921 -61 c3 -8 2 -12 -4 -9 -6
3 -10 10 -10 16 0 14 7 11 14 -7z m-1417 -356 c16 -15 36 -62 61 -140 l37
-118 132 0 c132 0 133 0 165 -29 26 -23 33 -36 33 -69 0 -50 -9 -60 -125 -145
-52 -39 -96 -71 -98 -73 -2 -1 15 -59 37 -128 39 -120 41 -128 27 -161 -17
-40 -71 -71 -107 -62 -13 3 -68 38 -121 77 -53 38 -102 70 -108 70 -6 0 -55
-32 -108 -70 -53 -39 -108 -74 -121 -77 -36 -9 -90 22 -107 62 -14 33 -12 41
27 161 22 69 39 127 37 128 -2 2 -46 35 -98 74 -117 85 -125 94 -125 144 0 33
7 46 33 69 32 29 33 29 165 29 l132 0 38 119 c30 98 43 124 69 146 26 22 39
26 66 21 19 -3 46 -15 59 -28z m1586 -18 c3 -11 1 -18 -4 -14 -5 3 -9 12 -9
20 0 20 7 17 13 -6z m-3342 -217 c-8 -15 -10 -15 -11 -2 0 17 10 32 18 25 2
-3 -1 -13 -7 -23z m3396 -135 c-3 -8 -6 -5 -6 6 -1 11 2 17 5 13 3 -3 4 -12 1
-19z m-2480 -94 c-3 -3 -12 -4 -19 -1 -8 3 -5 6 6 6 11 1 17 -2 13 -5z m1570
0 c-3 -3 -12 -4 -19 -1 -8 3 -5 6 6 6 11 1 17 -2 13 -5z m-1389 -404 c9 -11
35 -76 58 -143 l41 -122 142 -5 c135 -5 144 -6 162 -29 35 -43 23 -77 -41
-121 -73 -50 -170 -125 -170 -133 0 -4 18 -62 40 -130 25 -72 39 -131 35 -145
-3 -13 -20 -30 -40 -39 l-35 -17 -61 42 c-33 23 -65 39 -71 36 -6 -4 -8 -2 -4
4 4 6 -17 26 -49 47 l-55 37 -101 -71 c-139 -98 -136 -97 -176 -76 -43 24 -43
48 2 190 19 61 35 115 35 122 0 13 -188 156 -206 156 -11 0 -15 14 -14 62 1
54 17 60 173 65 l142 5 43 125 c25 76 50 132 63 143 28 23 65 22 87 -3z m1269
5 c15 -11 34 -51 58 -127 53 -163 34 -148 189 -148 145 0 171 -9 181 -58 7
-37 -2 -48 -96 -118 -49 -36 -87 -70 -84 -74 3 -5 0 -12 -6 -16 -8 -5 -9 -3
-4 6 5 8 3 11 -5 8 -33 -11 -32 -34 4 -149 20 -63 36 -126 36 -141 0 -27 -40
-68 -67 -68 -7 0 -65 37 -129 81 l-115 82 -62 -43 c-34 -24 -88 -62 -119 -84
l-58 -40 -35 17 c-20 9 -37 26 -40 39 -4 14 11 73 35 147 22 68 40 126 40 130
0 6 -102 85 -170 131 -67 46 -77 84 -35 125 23 24 30 25 152 25 70 0 133 4
139 8 6 4 30 64 53 134 24 73 50 132 59 138 25 14 55 12 79 -5z m-2290 -217
c-3 -8 -6 -5 -6 6 -1 11 2 17 5 13 3 -3 4 -12 1 -19z m3230 0 c-3 -8 -6 -5 -6
6 -1 11 2 17 5 13 3 -3 4 -12 1 -19z m-3053 -354 c3 -8 2 -12 -4 -9 -6 3 -10
10 -10 16 0 14 7 11 14 -7z m446 -469 c11 -13 10 -14 -4 -9 -9 3 -16 10 -16
15 0 13 6 11 20 -6z m239 -141 c14 -12 -19 -1 -35 12 -18 14 -18 14 6 3 14 -6
27 -13 29 -15z m1046 -154 c-3 -5 -16 -10 -28 -9 -21 0 -21 1 -2 9 28 12 37
12 30 0z m-397 -17 c-10 -2 -28 -2 -40 0 -13 2 -5 4 17 4 22 1 32 -1 23 -4z
m250 0 c-10 -2 -26 -2 -35 0 -10 3 -2 5 17 5 19 0 27 -2 18 -5z"/>
<path d="M1705 3623 c-10 -26 -29 -84 -44 -128 -20 -61 -32 -83 -51 -92 -16
-8 -71 -13 -152 -13 -120 0 -128 -1 -128 -19 0 -19 64 -74 157 -135 69 -46 72
-65 24 -208 -36 -107 -39 -124 -26 -137 12 -13 24 -8 92 39 43 29 91 64 106
77 39 32 77 29 129 -10 24 -18 71 -52 106 -77 57 -40 64 -42 79 -28 14 15 12
26 -22 127 -51 155 -50 162 55 239 171 125 171 125 -11 132 -74 3 -142 9 -151
14 -18 8 -30 37 -76 176 -22 69 -31 86 -49 88 -18 3 -25 -5 -38 -45z"/>
<path d="M2987 3638 c-8 -18 -26 -75 -42 -126 -37 -120 -41 -122 -209 -122
-165 0 -173 -13 -54 -96 39 -27 85 -61 103 -76 18 -15 34 -26 37 -23 13 13 -8
-84 -39 -178 -32 -99 -34 -110 -20 -125 15 -14 22 -12 79 28 35 25 82 59 106
77 24 18 55 33 68 33 14 0 67 -30 126 -71 119 -83 121 -84 136 -66 9 10 2 42
-29 136 -48 142 -45 161 24 207 93 61 157 116 157 135 0 18 -8 19 -122 20 -68
0 -131 2 -141 4 -33 6 -47 27 -72 109 -44 142 -55 166 -76 166 -12 0 -24 -12
-32 -32z"/>
<path d="M2345 2688 c-36 -117 -50 -144 -78 -160 -12 -7 -76 -15 -141 -18
l-119 -5 96 -68 c127 -90 129 -96 81 -246 -19 -62 -34 -114 -32 -116 2 -2 45
28 97 66 126 92 135 92 264 -1 53 -38 97 -67 97 -62 0 4 -16 56 -35 116 -47
147 -45 153 82 243 l96 68 -119 5 c-65 3 -129 11 -141 18 -28 16 -42 43 -78
160 -16 50 -32 92 -35 92 -3 0 -19 -42 -35 -92z"/>
<path d="M1716 1953 c-7 -16 -28 -74 -45 -130 -41 -132 -44 -134 -212 -132
-171 1 -175 -11 -38 -107 89 -63 129 -101 129 -123 0 -9 -18 -70 -40 -135 -30
-90 -37 -123 -29 -133 6 -7 15 -13 19 -13 4 0 54 34 110 75 70 51 111 75 131
75 19 0 62 -24 134 -77 96 -69 108 -75 122 -61 14 15 12 26 -21 126 -35 107
-43 156 -28 178 4 5 37 32 75 58 37 26 65 52 62 57 -4 5 0 7 7 4 20 -7 72 40
65 58 -5 13 -31 16 -141 19 -120 3 -138 5 -155 23 -10 11 -36 70 -56 130 -50
145 -62 160 -89 108z"/>
<path d="M3002 1968 c-5 -7 -27 -62 -47 -123 -20 -60 -46 -119 -56 -130 -17
-18 -36 -21 -157 -25 -172 -6 -176 -13 -60 -95 119 -84 138 -103 138 -139 0
-17 -16 -80 -36 -139 -33 -99 -35 -110 -21 -125 14 -14 26 -8 122 61 72 53
115 77 134 77 20 0 61 -24 131 -75 56 -41 106 -75 110 -75 4 0 13 6 19 14 9
11 8 23 -3 52 -26 71 -66 201 -66 216 0 22 44 63 125 118 142 96 137 112 -34
111 -167 -2 -170 0 -211 131 -47 150 -63 176 -88 146z"/>
<path d="M2810 4040 c0 -5 5 -10 11 -10 5 0 7 5 4 10 -3 6 -8 10 -11 10 -2 0
-4 -4 -4 -10z"/>
<path d="M2848 4023 c6 -2 18 -2 25 0 6 3 1 5 -13 5 -14 0 -19 -2 -12 -5z"/>
<path d="M3031 3966 c2 -2 15 -9 29 -15 24 -11 24 -11 6 3 -16 13 -49 24 -35
12z"/>
<path d="M1435 3890 c-3 -6 1 -7 9 -4 18 7 21 14 7 14 -6 0 -13 -4 -16 -10z"/>
<path d="M3300 3896 c0 -2 7 -7 16 -10 8 -3 12 -2 9 4 -6 10 -25 14 -25 6z"/>
<path d="M3395 3840 c-3 -5 -5 -10 -3 -11 33 -8 38 -7 27 7 -14 17 -16 17 -24
4z"/>
<path d="M1194 3628 l-19 -23 25 20 c14 11 27 21 29 22 2 2 0 3 -6 3 -5 0 -18
-10 -29 -22z"/>
<path d="M1020 3430 c-12 -16 -19 -30 -16 -30 2 0 14 14 26 30 12 17 19 30 16
30 -2 0 -14 -13 -26 -30z"/>
<path d="M3730 3430 c12 -16 24 -30 26 -30 3 0 -4 14 -16 30 -12 17 -24 30
-26 30 -3 0 4 -13 16 -30z"/>
<path d="M3760 3386 c0 -2 8 -10 18 -17 15 -13 16 -12 3 4 -13 16 -21 21 -21
13z"/>
<path d="M690 2979 c0 -5 5 -7 10 -4 6 3 10 8 10 11 0 2 -4 4 -10 4 -5 0 -10
-5 -10 -11z"/>
<path d="M4151 2204 c0 -11 3 -14 6 -6 3 7 2 16 -1 19 -3 4 -6 -2 -5 -13z"/>
<path d="M660 1850 c0 -5 5 -10 11 -10 5 0 7 5 4 10 -3 6 -8 10 -11 10 -2 0
-4 -4 -4 -10z"/>
<path d="M4081 1823 c-1 -6 -4 -20 -7 -30 -5 -17 -5 -17 6 0 6 10 9 23 6 30
-3 9 -5 9 -5 0z"/>
<path d="M770 1569 c0 -5 5 -7 10 -4 6 3 10 8 10 11 0 2 -4 4 -10 4 -5 0 -10
-5 -10 -11z"/>
<path d="M3973 1573 c4 -3 -1 -16 -10 -27 -18 -21 -18 -21 5 -2 24 21 29 36
10 36 -6 0 -8 -3 -5 -7z"/>
<path d="M1074 1143 c16 -18 32 -31 34 -28 3 3 3 6 1 8 -2 1 -17 13 -34 27
l-30 25 29 -32z"/>
<path d="M3539 1013 c-13 -17 -13 -17 6 -3 11 8 22 16 24 17 2 2 0 3 -6 3 -6
0 -17 -8 -24 -17z"/>
<path d="M3429 923 l-24 -28 28 24 c15 14 27 26 27 28 0 8 -8 1 -31 -24z"/>
<path d="M1840 730 c8 -5 20 -10 25 -10 6 0 3 5 -5 10 -8 5 -19 10 -25 10 -5
0 -3 -5 5 -10z"/>
<path d="M2900 730 c-8 -5 -10 -10 -5 -10 6 0 17 5 25 10 8 5 11 10 5 10 -5 0
-17 -5 -25 -10z"/>
<path d="M2748 623 c7 -3 16 -2 19 1 4 3 -2 6 -13 5 -11 0 -14 -3 -6 -6z"/>
</g>
</svg>
